<svg preserveAspectRatio="none" width="100%" height="100%" overflow="visible" style="display: block;" viewBox="0 0 18 18" fill="none" xmlns="http://www.w3.org/2000/svg">
<g id="icon-divine-sight">
<path id="Vector" d="M1.8 9C3.4 5.9 5.8 4.35 9 4.35C12.2 4.35 14.6 5.9 16.2 9C14.6 12.1 12.2 13.65 9 13.65C5.8 13.65 3.4 12.1 1.8 9Z" stroke="var(--stroke-0, white)" stroke-width="1.6" stroke-linecap="round" stroke-linejoin="round"/>
<path id="Vector_2" d="M9 11.25C10.2426 11.25 11.25 10.2426 11.25 9C11.25 7.75736 10.2426 6.75 9 6.75C7.75736 6.75 6.75 7.75736 6.75 9C6.75 10.2426 7.75736 11.25 9 11.25Z" stroke="var(--stroke-0, white)" stroke-width="1.6"/>
<path id="Vector_3" d="M9 1.9V3.05M14.05 3.95L13.2 4.8M3.95 3.95L4.8 4.8" stroke="var(--stroke-0, #9BEAFF)" stroke-width="1.35" stroke-linecap="round"/>
</g>
</svg>
