<svg preserveAspectRatio="none" width="100%" height="100%" overflow="visible" style="display: block;" viewBox="0 0 18 18" fill="none" xmlns="http://www.w3.org/2000/svg">
<g id="icon-village-victory">
<path id="Vector" d="M12.9 13.9C8.7 13.9 5.3 10.5 5.3 6.3C5.3 5.05 5.6 3.88 6.14 2.85C3.76 3.88 2.1 6.25 2.1 9C2.1 12.73 5.27 15.9 9 15.9C11.75 15.9 14.12 14.24 15.15 11.86C14.12 12.4 14.15 13.9 12.9 13.9Z" stroke="var(--stroke-0, #FFF8D8)" stroke-width="1.5" stroke-linecap="round" stroke-linejoin="round"/>
<path id="Vector_2" d="M12.2 2.4L12.75 3.55L14 3.73L13.1 4.61L13.3 5.85L12.2 5.27L11.1 5.85L11.3 4.61L10.4 3.73L11.65 3.55L12.2 2.4Z" fill="var(--fill-0, #64D68A)"/>
</g>
</svg>
