<svg preserveAspectRatio="none" width="100%" height="100%" overflow="visible" style="display: block;" viewBox="0 0 18 18" fill="none" xmlns="http://www.w3.org/2000/svg">
<g id="icon-potioncraft">
<path id="Vector" d="M6.8 2.4H11.2" stroke="var(--stroke-0, #FFF8D8)" stroke-width="1.5" stroke-linecap="round"/>
<path id="Vector_2" d="M7.55 2.8V6.2L4.45 11.15C3.25 13.08 4.63 15.6 6.9 15.6H11.1C13.37 15.6 14.75 13.08 13.55 11.15L10.45 6.2V2.8" stroke="var(--stroke-0, #FFF8D8)" stroke-width="1.5" stroke-linecap="round" stroke-linejoin="round"/>
<path id="Vector_3" d="M5.9 11.2C7.15 10.35 8.55 10.98 9.58 11.48C10.48 11.9 11.35 12.18 12.4 11.42" stroke="var(--stroke-0, #64D68A)" stroke-width="1.35" stroke-linecap="round"/>
<path id="Vector_4" d="M11.6 6.05C12.0694 6.05 12.45 5.66944 12.45 5.2C12.45 4.73056 12.0694 4.35 11.6 4.35C11.1306 4.35 10.75 4.73056 10.75 5.2C10.75 5.66944 11.1306 6.05 11.6 6.05Z" fill="var(--fill-0, #B470FF)"/>
</g>
</svg>
