<svg preserveAspectRatio="none" width="100%" height="100%" overflow="visible" style="display: block;" viewBox="0 0 13.3333 13.3333" fill="none" xmlns="http://www.w3.org/2000/svg">
<path id="Vector" d="M6.66667 0.666667C5.87102 1.46232 5.42403 2.54145 5.42403 3.66667C5.42403 4.79188 5.87102 5.87102 6.66667 6.66667C7.46232 7.46232 8.54145 7.90931 9.66667 7.90931C10.7919 7.90931 11.871 7.46232 12.6667 6.66667C12.6667 7.85335 12.3148 9.01339 11.6555 10.0001C10.9962 10.9868 10.0591 11.7558 8.96277 12.2099C7.86641 12.6641 6.66001 12.7829 5.49613 12.5514C4.33224 12.3199 3.26314 11.7484 2.42403 10.9093C1.58491 10.0702 1.01347 9.00109 0.781958 7.83721C0.550447 6.67332 0.669267 5.46692 1.12339 4.37057C1.57752 3.27421 2.34655 2.33714 3.33325 1.67785C4.31994 1.01856 5.47998 0.666667 6.66667 0.666667Z" stroke="var(--stroke-0, white)" stroke-width="1.33333" stroke-linecap="round" stroke-linejoin="round"/>
</svg>
