<svg preserveAspectRatio="none" width="100%" height="100%" overflow="visible" style="display: block;" viewBox="0 0 12.0003 14.002" fill="none" xmlns="http://www.w3.org/2000/svg">
<path id="Union" d="M5.99983 0C7.19487 8.49426e-05 8.36344 0.357331 9.35432 1.02539C10.345 1.6936 11.1143 2.64314 11.5623 3.75098C12.0102 4.85906 12.118 6.07693 11.8699 7.24609C11.6578 8.24534 11.1928 9.17 10.5262 9.93652C10.5896 10.0978 10.6333 10.2676 10.6531 10.4414C10.6958 10.8155 10.6315 11.1948 10.4686 11.5342C10.3056 11.8735 10.0498 12.1598 9.73127 12.3604C9.60586 12.4393 9.47217 12.5027 9.33381 12.5518V12.668C9.3337 13.0214 9.19311 13.3614 8.94318 13.6113C8.69324 13.8613 8.35329 14.0018 7.99983 14.002H3.99983C3.64657 14.0019 3.30736 13.861 3.05744 13.6113C2.80749 13.3614 2.66692 13.0214 2.66682 12.668V12.5518C2.52841 12.5027 2.39383 12.4393 2.26838 12.3604C1.95002 12.1598 1.69403 11.8733 1.53108 11.5342C1.36814 11.1947 1.30481 10.8155 1.34748 10.4414C1.36732 10.2679 1.41024 10.0985 1.47346 9.9375C0.806764 9.17099 0.342855 8.24535 0.130685 7.24609C-0.117415 6.07683 -0.0106642 4.85914 0.437325 3.75098C0.88539 2.64288 1.65434 1.69366 2.64533 1.02539C3.6363 0.357177 4.80462 6.52211e-05 5.99983 0ZM5.99983 1.33398C5.07042 1.33405 4.16207 1.61134 3.39143 2.13086C2.62062 2.65064 2.02215 3.38908 1.67365 4.25098C1.32525 5.11283 1.24245 6.05938 1.43537 6.96875C1.62839 7.87796 2.0884 8.70945 2.75666 9.35547C3.00369 9.59466 3.02921 9.98347 2.81428 10.252C2.73582 10.35 2.68596 10.468 2.6717 10.5928C2.65755 10.7174 2.67896 10.844 2.73322 10.957C2.78757 11.07 2.87325 11.1656 2.97932 11.2324C3.08541 11.2991 3.20851 11.3349 3.33381 11.335C3.70164 11.3354 3.99983 11.6341 3.99983 12.002V12.668H7.99983V12.002C7.99983 11.6339 8.29879 11.3352 8.66682 11.335C8.79209 11.3347 8.91529 11.2992 9.02131 11.2324C9.12741 11.1656 9.21311 11.0701 9.2674 10.957C9.32166 10.844 9.3421 10.7174 9.32795 10.5928C9.31372 10.4683 9.26456 10.3499 9.18635 10.252C8.97127 9.98332 8.99653 9.59464 9.24397 9.35547C9.91217 8.70943 10.3723 7.87794 10.5653 6.96875C10.7581 6.05951 10.6753 5.11273 10.327 4.25098C9.97856 3.38921 9.37981 2.65065 8.6092 2.13086C7.83852 1.61121 6.92933 1.33407 5.99983 1.33398ZM5.99983 8.66797C6.25217 8.66813 6.48364 8.81138 6.5965 9.03711L6.92951 9.70312C7.03261 9.90969 7.0216 10.1561 6.90022 10.3525C6.77882 10.5486 6.56437 10.6677 6.33381 10.668H5.66682C5.43601 10.668 5.22097 10.5487 5.09943 10.3525C4.97798 10.156 4.96686 9.90976 5.07014 9.70312L5.40412 9.03711C5.517 8.81135 5.74744 8.66809 5.99983 8.66797ZM3.99983 5.33398C4.73594 5.33416 5.33265 5.93185 5.33283 6.66797C5.33266 7.40409 4.73595 8.0008 3.99983 8.00098C3.26358 8.00094 2.66602 7.40418 2.66584 6.66797C2.66602 5.93176 3.26359 5.33402 3.99983 5.33398ZM7.99983 5.33398C8.73594 5.33416 9.33265 5.93185 9.33283 6.66797C9.33266 7.40409 8.73595 8.0008 7.99983 8.00098C7.26358 8.00094 6.66602 7.40418 6.66584 6.66797C6.66602 5.93176 7.26359 5.33402 7.99983 5.33398Z" fill="var(--fill-0, white)"/>
</svg>
